<svg xmlns="http://www.w3.org/2000/svg" viewBox="0 0 512 512" width="512" height="512">
  <path fill="#10B981" d="M256 32 C260 32 263 35 263 39 L263 70 L284 70 C288 70 291 73 291 77 C291 81 288 84 284 84 L263 84 L263 112 L344 200 C349 205 346 214 338 214 L302 214 L378 296 C383 301 380 310 372 310 L330 310 L414 400 C419 405 416 414 408 414 L284 414 L284 468 C284 474 279 480 272 480 L240 480 C233 480 228 474 228 468 L228 414 L104 414 C96 414 93 405 98 400 L182 310 L140 310 C132 310 129 301 134 296 L210 214 L174 214 C166 214 163 205 168 200 L249 112 L249 84 L228 84 C224 84 221 81 221 77 C221 73 224 70 228 70 L249 70 L249 39 C249 35 252 32 256 32 Z"/>
</svg>
